<svg xmlns="http://www.w3.org/2000/svg" width="214" height="60" viewBox="0 0 214 60" fill="none">
  <g clip-path="url(#clip0_43_2)">
    <path d="M130.382 34.0713H120.723V30.1699H116.407V30.474C116.407 31.1337 116.677 31.582 117.222 31.8243V34.0713H107.537C107.112 34.0713 106.759 34.2156 106.468 34.5094C106.173 34.798 106.027 35.1536 106.027 35.5711C106.027 35.9885 106.173 36.375 106.468 36.6688C106.759 36.9574 107.112 37.1017 107.537 37.1017H130.382C130.802 37.1017 131.16 36.9574 131.45 36.6688C131.741 36.3802 131.886 36.0143 131.886 35.5711C131.886 35.1278 131.741 34.798 131.45 34.5094C131.155 34.2208 130.802 34.0713 130.382 34.0713Z" fill="#007F41"/>
    <path d="M127.456 43.0648H114.42C113.819 43.0648 113.518 42.7659 113.518 42.168V38.8696H109.114V39.1685C109.114 39.8282 109.394 40.2663 109.959 40.4879V42.9772C109.959 45.0387 111.116 46.0643 113.424 46.0643H127.461C127.866 46.0643 128.219 45.92 128.53 45.6262C128.841 45.3376 128.997 44.982 128.997 44.5594C128.997 44.1625 128.841 43.8121 128.53 43.5132C128.213 43.2142 127.861 43.0596 127.461 43.0596L127.456 43.0648Z" fill="#007F41"/>
    <path d="M109.197 32.0306C109.482 32.0512 109.773 32.0203 110.073 31.943C111.339 31.5616 112.418 31.1235 113.315 30.6236C114.213 30.1237 115.012 29.6135 115.717 29.0981C117.087 28.155 118.191 27.0469 119.037 25.7688C119.883 27.0469 120.987 28.155 122.357 29.0981C123.062 29.6135 123.866 30.1237 124.769 30.6236C125.677 31.1235 126.756 31.5668 128.001 31.943C128.301 32.0203 128.592 32.0512 128.872 32.0306C129.401 31.9894 129.78 31.7317 130.024 31.2524C130.247 30.7937 130.247 30.3402 130.024 29.897C129.821 29.562 129.479 29.3094 128.997 29.1497C127.767 28.7683 126.699 28.3096 125.78 27.7685C124.867 27.2273 124.084 26.6656 123.441 26.0883C121.693 24.5319 120.801 22.6817 120.759 20.5429V20.1821H116.412V20.512C116.412 20.7542 116.454 20.9603 116.532 21.1407C116.615 21.3211 116.77 21.5324 117.014 21.7695C117.014 23.1095 116.21 24.5474 114.602 26.0883C113.959 26.6707 113.196 27.2273 112.309 27.7685C111.422 28.3044 110.348 28.7683 109.083 29.1497C108.6 29.3094 108.258 29.562 108.056 29.897C107.833 30.335 107.833 30.7937 108.056 31.2524C108.294 31.7317 108.683 31.9894 109.202 32.0306H109.197Z" fill="#007F41"/>
    <path d="M156.333 27.655H154.072V20.1924H149.938V20.5222C149.938 21.1613 150.223 21.5994 150.783 21.8416V44.7449C150.783 45.1829 150.944 45.5643 151.265 45.8838C151.587 46.2034 151.976 46.3631 152.443 46.3631C152.91 46.3631 153.268 46.2034 153.589 45.8838C153.911 45.5643 154.072 45.1829 154.072 44.7449V30.7421H156.333V44.7139C156.333 45.1572 156.499 45.5385 156.831 45.8735C157.163 46.2034 157.547 46.3683 157.993 46.3683C158.46 46.3683 158.854 46.2034 159.186 45.8735C159.518 45.5437 159.684 45.1572 159.684 44.7139V20.1924H156.333V27.655Z" fill="#007F41"/>
    <path d="M147.914 22.5888H143.536V20.012H139.853V22.5888H135.268C134.822 22.5888 134.459 22.7331 134.179 23.0218C133.893 23.3104 133.753 23.6557 133.753 24.0577C133.753 24.4597 133.893 24.7998 134.179 25.0884C134.459 25.3822 134.822 25.5213 135.268 25.5213H136.285C135.802 26.0676 135.403 26.6809 135.081 27.3664C134.677 28.2374 134.48 29.1496 134.48 30.1082C134.48 31.0668 134.671 32.0099 135.055 32.8706C135.439 33.7261 135.958 34.4889 136.622 35.1485C137.25 35.7876 137.991 36.2978 138.858 36.6792C139.724 37.0554 140.658 37.2461 141.664 37.2461C142.67 37.2461 143.568 37.0554 144.423 36.6792C145.279 36.303 146.026 35.7876 146.67 35.1485C147.334 34.4889 147.852 33.7313 148.226 32.8706C148.599 32.0099 148.781 31.0874 148.781 30.1082C148.781 29.129 148.589 28.2374 148.195 27.3664C147.889 26.6809 147.489 26.0676 147.007 25.5213H147.909C148.309 25.5213 148.667 25.377 148.962 25.0884C149.263 24.7998 149.414 24.4545 149.414 24.0577C149.414 23.6608 149.263 23.3104 148.962 23.0218C148.661 22.7331 148.309 22.5888 147.909 22.5888H147.914ZM145.202 31.6698C144.999 32.1954 144.73 32.6387 144.382 33.02C144.024 33.422 143.604 33.7313 143.127 33.9477C142.655 34.1693 142.167 34.2776 141.664 34.2776C141.119 34.2776 140.611 34.1693 140.139 33.9477C139.672 33.7313 139.257 33.422 138.92 33.02C138.577 32.6387 138.313 32.1954 138.121 31.6698C137.929 31.1492 137.83 30.6029 137.83 30.0206C137.83 29.4382 137.929 28.8919 138.121 28.3714C138.313 27.8508 138.583 27.4024 138.92 27.0211C139.262 26.6191 139.672 26.3098 140.139 26.0882C140.611 25.8718 141.124 25.7636 141.664 25.7636C142.167 25.7636 142.655 25.8718 143.127 26.0882C143.599 26.3098 144.019 26.6191 144.382 27.0211C144.724 27.4024 144.994 27.8508 145.202 28.3714C145.399 28.8919 145.502 29.4382 145.502 30.0206C145.502 30.6029 145.399 31.1492 145.202 31.6698Z" fill="#007F41"/>
    <path d="M187.716 39.7972H178.063V35.5092H182.109C184.381 35.5092 185.517 34.4888 185.517 32.4531V21.0633H181.201V21.357C181.201 22.0167 181.466 22.4599 181.984 22.6764V25.2533H170.64V21.0581H166.293V21.3519C166.293 22.0115 166.568 22.4548 167.107 22.6712V32.4427C167.107 34.4836 168.233 35.4989 170.484 35.4989H174.561V39.7868H164.877C164.457 39.7868 164.094 39.926 163.808 40.2095C163.513 40.4878 163.367 40.8485 163.367 41.2866C163.367 41.7247 163.513 42.0597 163.808 42.3534C164.099 42.642 164.457 42.7863 164.877 42.7863H187.716C188.142 42.7863 188.5 42.642 188.79 42.3534C189.081 42.0597 189.231 41.704 189.231 41.2866C189.231 40.8485 189.086 40.4878 188.79 40.2095C188.5 39.926 188.147 39.7868 187.716 39.7868V39.7972ZM171.548 32.5407C170.941 32.5407 170.64 32.2314 170.64 31.613V28.2837H181.984V31.613C181.984 32.2366 181.683 32.5407 181.082 32.5407H171.548Z" fill="#007F41"/>
    <path d="M209.684 20.1924V20.5222C209.684 21.1613 209.954 21.5993 210.499 21.8416V27.1138H205.581C205.524 26.9695 205.467 26.8201 205.4 26.6809C205.099 26.0728 204.663 25.511 204.113 24.9905H206.095C206.473 24.9905 206.8 24.8514 207.075 24.5834C207.345 24.3154 207.485 23.9907 207.485 23.6093C207.485 23.2485 207.35 22.9238 207.075 22.6352C206.8 22.3415 206.473 22.2023 206.095 22.2023H200.902V19.7749H197.038V22.2023H191.85C191.487 22.2023 191.166 22.3466 190.886 22.6352C190.6 22.9238 190.465 23.2485 190.465 23.6093C190.465 23.9907 190.606 24.3154 190.886 24.5834C191.166 24.8514 191.487 24.9905 191.85 24.9905H193.739C193.189 25.511 192.748 26.0728 192.437 26.6809C192.084 27.3715 191.913 28.1446 191.913 29.0053C191.913 29.866 192.089 30.6751 192.437 31.4172C192.789 32.1697 193.298 32.8345 193.962 33.4117C194.584 33.9735 195.326 34.4116 196.182 34.7311C197.038 35.0506 197.956 35.2104 198.941 35.2104C199.927 35.2104 200.814 35.0506 201.654 34.7311C202.5 34.4064 203.242 33.9683 203.89 33.4117C204.554 32.8345 205.057 32.1697 205.4 31.4172C205.612 30.9431 205.752 30.4535 205.835 29.9381H210.499V33.7725C210.499 34.2518 210.67 34.6641 211.012 35.0042C211.355 35.3444 211.764 35.5093 212.247 35.5093C212.729 35.5093 213.139 35.3392 213.481 35.0042C213.824 34.6641 213.995 34.2518 213.995 33.7725V20.1924H209.679H209.684ZM201.462 31.3915C200.809 32.0563 199.968 32.3913 198.941 32.3913C197.914 32.3913 197.038 32.0563 196.379 31.3915C195.715 30.7163 195.383 29.9123 195.383 28.9744C195.383 28.0364 195.715 27.2375 196.379 26.5727C197.038 25.913 197.894 25.5832 198.941 25.5832C199.989 25.5832 200.809 25.913 201.462 26.5727C202.111 27.2375 202.443 28.0364 202.443 28.9744C202.443 29.9123 202.111 30.7163 201.462 31.3915Z" fill="#007F41"/>
    <path d="M195.29 36.8287C195.29 37.4884 195.565 37.9265 196.109 38.1481V42.9771C196.109 45.0386 197.245 46.0642 199.517 46.0642H210.623C212.874 46.0642 214 45.0386 214 42.9771V36.5298H195.29V36.8287ZM199.611 39.3489H210.53V42.3175C210.53 42.9153 210.208 43.2142 209.565 43.2142H200.57C199.927 43.2142 199.605 42.9153 199.605 42.3175V39.3489H199.611Z" fill="#007F41"/>
    <path d="M65.0274 19.7903H55.0886V46.7908H65.0326C73.2388 46.7908 79.1938 41.132 79.1938 33.3395C79.1938 25.547 73.5034 19.7851 65.0326 19.7903M74.3904 33.3034C74.3904 38.9829 70.5985 42.6472 64.8977 42.6472H59.8868V23.9236H64.8977C70.7697 23.9236 74.3904 27.4488 74.3904 33.3034Z" fill="#007F41"/>
    <path d="M98.5526 32.819C100.327 31.6182 101.494 29.232 101.494 26.7169C101.494 22.3775 97.9872 19.7851 92.1204 19.7903H81.3413V46.7908H92.3072C98.9365 46.7908 102.894 43.9047 102.894 39.0808C102.894 36.1895 101.473 34.1383 98.5474 32.819M90.3308 30.8709C89.449 31.0822 88.9199 31.613 88.7798 32.4324C88.6709 33.0561 88.8161 33.7157 89.1585 34.195C89.4334 34.5713 89.8173 34.8186 90.2634 34.8856C90.8858 34.9887 91.5706 35.0196 92.2916 35.0506C94.4287 35.1485 96.6956 35.2412 97.7071 37.1224C98.3036 38.2459 98.2154 39.6992 97.484 40.7506C96.7267 41.838 95.2431 42.4977 93.0697 42.6214C92.7896 42.6369 92.5043 42.6472 92.193 42.6472H86.1447V23.9236H91.6276C95.238 23.9236 96.6956 24.9544 96.6956 27.1447C96.6956 28.3455 96.2339 29.4536 95.3209 30.1081C94.5014 30.7008 93.3031 30.7162 92.1515 30.7266C91.638 30.7317 90.9066 30.742 90.336 30.8657L90.3308 30.8709Z" fill="#007F41"/>
    <path d="M14.8253 24.0217C13.129 22.4704 11.0645 21.1923 8.57462 20.3213C7.32449 19.8832 5.26515 19.2441 3.50667 19.2441C1.99718 19.2441 0.705558 19.7234 0.378761 21.218C-0.248896 24.0681 0.0467774 48.5793 0.269829 51.419C0.425447 53.5063 1.31247 54.7226 3.77122 54.671C20.9255 54.3979 25.4228 33.7365 14.8304 24.0165L14.8253 24.0217Z" fill="url(#paint0_linear_43_2)"/>
    <path d="M34.4745 4.33431C32.9339 2.92733 31.0406 1.76774 28.7997 0.979213C27.6585 0.572067 25.7911 0 24.1934 0C22.8136 0 21.6464 0.443223 21.3404 1.79866C20.775 4.38069 21.0447 26.6398 21.2418 29.2218C21.3923 31.1081 22.1859 32.211 24.4216 32.18C39.9989 31.9223 44.0917 13.1627 34.4693 4.33946L34.4745 4.33431Z" fill="url(#paint1_linear_43_2)"/>
    <path d="M41.358 25.0215C39.4231 23.2486 37.0422 21.7901 34.2255 20.8057C32.7886 20.2955 30.4336 19.574 28.4365 19.574C26.704 19.574 25.2256 20.1203 24.8521 21.8313C24.1311 25.0833 24.4787 53.0424 24.7328 56.2842C24.9248 58.6652 25.9155 60.0413 28.7218 60C48.2985 59.6908 53.4495 36.1175 41.358 25.0215Z" fill="url(#paint2_linear_43_2)"/>
  </g>
  <defs>
    <linearGradient id="paint0_linear_43_2" x1="19.8032" y1="37.7541" x2="-1.38856" y2="37.5494" gradientUnits="userSpaceOnUse">
      <stop offset="0.1" stop-color="#EE7800"/>
      <stop offset="0.25" stop-color="#EB7201"/>
      <stop offset="0.46" stop-color="#E56106"/>
      <stop offset="0.69" stop-color="#DA460E"/>
      <stop offset="0.93" stop-color="#CC2119"/>
      <stop offset="1" stop-color="#C8161D"/>
    </linearGradient>
    <linearGradient id="paint1_linear_43_2" x1="22.1745" y1="16.2275" x2="41.1399" y2="16.4107" gradientUnits="userSpaceOnUse">
      <stop stop-color="#20AEE5"/>
      <stop offset="0.55" stop-color="#0F7EC4"/>
      <stop offset="1" stop-color="#0054A7"/>
    </linearGradient>
    <linearGradient id="paint2_linear_43_2" x1="23.2643" y1="38.3983" x2="51.296" y2="38.6692" gradientUnits="userSpaceOnUse">
      <stop stop-color="#8FC31F"/>
      <stop offset="0.14" stop-color="#89C020"/>
      <stop offset="0.31" stop-color="#78BA26"/>
      <stop offset="0.52" stop-color="#5DB02F"/>
      <stop offset="0.73" stop-color="#37A23C"/>
      <stop offset="0.96" stop-color="#08904D"/>
      <stop offset="1" stop-color="#008D50"/>
    </linearGradient>
    <clipPath id="clip0_43_2">
      <rect width="214" height="60" fill="white"/>
    </clipPath>
  </defs>
</svg>