<svg width="124" height="36" viewBox="0 0 124 36" fill="none" xmlns="http://www.w3.org/2000/svg">
<path d="M74.9385 19.8559H69.387V17.5984H66.9064V17.7743C66.9064 18.156 67.0614 18.4155 67.3745 18.5557V19.8559H61.808C61.5636 19.8559 61.3608 19.9394 61.1939 20.1093C61.0239 20.2763 60.9404 20.4821 60.9404 20.7237C60.9404 20.9652 61.0239 21.1889 61.1939 21.3589C61.3608 21.5259 61.5636 21.6094 61.808 21.6094H74.9385C75.18 21.6094 75.3857 21.5259 75.5527 21.3589C75.7196 21.1919 75.8031 20.9801 75.8031 20.7237C75.8031 20.4672 75.7196 20.2763 75.5527 20.1093C75.3827 19.9423 75.18 19.8559 74.9385 19.8559Z" fill="#007F41"/>
<path d="M73.2571 25.0595H65.7647C65.4188 25.0595 65.2459 24.8866 65.2459 24.5406V22.6321H62.7146V22.805C62.7146 23.1868 62.8756 23.4402 63.2006 23.5685V25.0088C63.2006 26.2017 63.8655 26.7951 65.1922 26.7951H73.2601C73.4927 26.7951 73.6954 26.7116 73.8743 26.5417C74.0532 26.3747 74.1426 26.1689 74.1426 25.9244C74.1426 25.6947 74.0532 25.4919 73.8743 25.319C73.6924 25.146 73.4897 25.0566 73.2601 25.0566L73.2571 25.0595Z" fill="#007F41"/>
<path d="M62.7621 18.675C62.9261 18.6869 63.093 18.6691 63.266 18.6243C63.9934 18.4036 64.6136 18.1502 65.1294 17.8609C65.6452 17.5716 66.1043 17.2764 66.5098 16.9782C67.2969 16.4325 67.932 15.7913 68.418 15.0517C68.9039 15.7913 69.539 16.4325 70.3261 16.9782C70.7316 17.2764 71.1937 17.5716 71.7125 17.8609C72.2343 18.1502 72.8544 18.4066 73.57 18.6243C73.7429 18.6691 73.9098 18.6869 74.0708 18.675C74.375 18.6512 74.5926 18.5021 74.7327 18.2247C74.8609 17.9593 74.8609 17.6969 74.7327 17.4404C74.6165 17.2466 74.4197 17.1005 74.1424 17.008C73.4358 16.7873 72.8216 16.5219 72.2939 16.2088C71.7691 15.8957 71.3189 15.5706 70.9492 15.2366C69.9445 14.336 69.4317 13.2654 69.4078 12.0278V11.8191H66.9093V12.0099C66.9093 12.1501 66.9332 12.2694 66.9779 12.3738C67.0256 12.4781 67.1151 12.6004 67.2552 12.7376C67.2552 13.5129 66.793 14.345 65.8688 15.2366C65.4991 15.5736 65.0608 15.8957 64.551 16.2088C64.0411 16.5189 63.424 16.7873 62.6965 17.008C62.4192 17.1005 62.2224 17.2466 62.1062 17.4404C61.978 17.6939 61.978 17.9593 62.1062 18.2247C62.2433 18.5021 62.4669 18.6512 62.7651 18.675H62.7621Z" fill="#007F41"/>
<path d="M89.8549 16.1431H88.555V11.825H86.1787V12.0158C86.1787 12.3856 86.3427 12.6391 86.6647 12.7792V26.0318C86.6647 26.2853 86.7571 26.506 86.942 26.6909C87.1268 26.8758 87.3504 26.9682 87.6188 26.9682C87.8871 26.9682 88.0928 26.8758 88.2777 26.6909C88.4625 26.506 88.555 26.2853 88.555 26.0318V17.9294H89.8549V26.014C89.8549 26.2704 89.9503 26.4911 90.1411 26.6849C90.3319 26.8758 90.5525 26.9712 90.8089 26.9712C91.0773 26.9712 91.3039 26.8758 91.4947 26.6849C91.6855 26.4941 91.7809 26.2704 91.7809 26.014V11.825H89.8549V16.1431Z" fill="#007F41"/>
<path d="M85.0159 13.2115H82.4995V11.7205H80.3827V13.2115H77.7471C77.4906 13.2115 77.2819 13.295 77.1209 13.462C76.957 13.629 76.8765 13.8288 76.8765 14.0614C76.8765 14.294 76.957 14.4909 77.1209 14.6579C77.2819 14.8278 77.4906 14.9084 77.7471 14.9084H78.3314C78.0542 15.2245 77.8246 15.5793 77.6397 15.976C77.4072 16.4799 77.2939 17.0078 77.2939 17.5625C77.2939 18.1171 77.4042 18.6629 77.6248 19.1609C77.8454 19.6559 78.1436 20.0973 78.5252 20.479C78.886 20.8488 79.3123 21.144 79.8102 21.3647C80.3081 21.5824 80.8448 21.6927 81.4232 21.6927C82.0016 21.6927 82.5174 21.5824 83.0094 21.3647C83.5013 21.147 83.9306 20.8488 84.3003 20.479C84.682 20.0973 84.9801 19.6589 85.1948 19.1609C85.4095 18.6629 85.5138 18.1291 85.5138 17.5625C85.5138 16.9959 85.4035 16.4799 85.1769 15.976C85.001 15.5793 84.7714 15.2245 84.4941 14.9084H85.0129C85.2425 14.9084 85.4482 14.8249 85.6182 14.6579C85.7911 14.4909 85.8776 14.2911 85.8776 14.0614C85.8776 13.8318 85.7911 13.629 85.6182 13.462C85.4452 13.295 85.2425 13.2115 85.0129 13.2115H85.0159ZM83.4566 18.466C83.3403 18.7702 83.1853 19.0267 82.9855 19.2474C82.7798 19.48 82.5383 19.6589 82.264 19.7842C81.9927 19.9124 81.7124 19.975 81.4232 19.975C81.1102 19.975 80.818 19.9124 80.5467 19.7842C80.2783 19.6589 80.0398 19.48 79.846 19.2474C79.6492 19.0267 79.4972 18.7702 79.3869 18.466C79.2766 18.1649 79.2199 17.8487 79.2199 17.5118C79.2199 17.1748 79.2766 16.8587 79.3869 16.5575C79.4972 16.2563 79.6522 15.9968 79.846 15.7762C80.0428 15.5436 80.2783 15.3646 80.5467 15.2364C80.818 15.1111 81.1131 15.0485 81.4232 15.0485C81.7124 15.0485 81.9927 15.1111 82.264 15.2364C82.5353 15.3646 82.7768 15.5436 82.9855 15.7762C83.1823 15.9968 83.3373 16.2563 83.4566 16.5575C83.5699 16.8587 83.6295 17.1748 83.6295 17.5118C83.6295 17.8487 83.5699 18.1649 83.4566 18.466Z" fill="#007F41"/>
<path d="M107.893 23.169H102.344V20.6878H104.67C105.976 20.6878 106.629 20.0974 106.629 18.9194V12.3289H104.148V12.4989C104.148 12.8806 104.3 13.1371 104.598 13.2623V14.7534H98.078V12.3259H95.5795V12.4959C95.5795 12.8776 95.7375 13.1341 96.0476 13.2593V18.9135C96.0476 20.0944 96.6946 20.6819 97.9885 20.6819H100.332V23.163H94.7656C94.5241 23.163 94.3154 23.2435 94.1514 23.4075C93.9814 23.5686 93.8979 23.7773 93.8979 24.0308C93.8979 24.2843 93.9814 24.4781 94.1514 24.6481C94.3183 24.8151 94.5241 24.8986 94.7656 24.8986H107.893C108.137 24.8986 108.343 24.8151 108.51 24.6481C108.677 24.4781 108.764 24.2724 108.764 24.0308C108.764 23.7773 108.68 23.5686 108.51 23.4075C108.343 23.2435 108.14 23.163 107.893 23.163V23.169ZM98.5997 18.9701C98.2509 18.9701 98.078 18.7912 98.078 18.4333V16.5069H104.598V18.4333C104.598 18.7942 104.426 18.9701 104.08 18.9701H98.5997Z" fill="#007F41"/>
<path d="M120.519 11.825V12.0159C120.519 12.3857 120.674 12.6392 120.987 12.7793V15.8301H118.161C118.128 15.7466 118.095 15.6601 118.057 15.5796C117.884 15.2277 117.633 14.9026 117.317 14.6014H118.456C118.674 14.6014 118.862 14.5209 119.02 14.3658C119.175 14.2108 119.255 14.0229 119.255 13.8022C119.255 13.5935 119.178 13.4056 119.02 13.2386C118.862 13.0686 118.674 12.9881 118.456 12.9881H115.472V11.5835H113.25V12.9881H110.269C110.06 12.9881 109.875 13.0716 109.714 13.2386C109.55 13.4056 109.473 13.5935 109.473 13.8022C109.473 14.0229 109.553 14.2108 109.714 14.3658C109.875 14.5209 110.06 14.6014 110.269 14.6014H111.354C111.038 14.9026 110.785 15.2277 110.606 15.5796C110.403 15.9792 110.305 16.4265 110.305 16.9245C110.305 17.4225 110.406 17.8907 110.606 18.3201C110.809 18.7555 111.101 19.1402 111.482 19.4742C111.84 19.7993 112.267 20.0528 112.758 20.2377C113.25 20.4225 113.778 20.515 114.345 20.515C114.911 20.515 115.421 20.4225 115.904 20.2377C116.39 20.0498 116.816 19.7963 117.189 19.4742C117.571 19.1402 117.86 18.7555 118.057 18.3201C118.179 18.0458 118.259 17.7625 118.307 17.4643H120.987V19.683C120.987 19.9603 121.086 20.1989 121.283 20.3957C121.479 20.5925 121.715 20.688 121.992 20.688C122.269 20.688 122.505 20.5895 122.702 20.3957C122.899 20.1989 122.997 19.9603 122.997 19.683V11.825H120.516H120.519ZM115.794 18.3052C115.418 18.6899 114.935 18.8838 114.345 18.8838C113.754 18.8838 113.25 18.6899 112.872 18.3052C112.49 17.9146 112.299 17.4494 112.299 16.9066C112.299 16.3639 112.49 15.9016 112.872 15.5169C113.25 15.1352 113.742 14.9444 114.345 14.9444C114.947 14.9444 115.418 15.1352 115.794 15.5169C116.166 15.9016 116.357 16.3639 116.357 16.9066C116.357 17.4494 116.166 17.9146 115.794 18.3052Z" fill="#007F41"/>
<path d="M112.246 21.4513C112.246 21.833 112.404 22.0865 112.717 22.2147V25.009C112.717 26.2018 113.37 26.7953 114.676 26.7953H121.059C122.353 26.7953 123 26.2018 123 25.009V21.2783H112.246V21.4513ZM114.729 22.9095H121.005V24.6273C121.005 24.9732 120.821 25.1461 120.451 25.1461H115.281C114.911 25.1461 114.726 24.9732 114.726 24.6273V22.9095H114.729Z" fill="#007F41"/>
<path d="M37.3749 11.5925H31.6624V27.2159H37.3779C42.0946 27.2159 45.5173 23.9416 45.5173 19.4326C45.5173 14.9236 42.2466 11.5895 37.3779 11.5925M42.7564 19.4117C42.7564 22.698 40.577 24.8183 37.3003 24.8183H34.4202V13.9842H37.3003C40.6754 13.9842 42.7564 16.024 42.7564 19.4117Z" fill="#007F41"/>
<path d="M56.6443 19.1314C57.6639 18.4365 58.3348 17.0558 58.3348 15.6005C58.3348 13.0896 56.3193 11.5896 52.9472 11.5925H46.7517V27.2159H53.0546C56.8649 27.2159 59.1398 25.5459 59.1398 22.7547C59.1398 21.0817 58.3228 19.8948 56.6413 19.1314M51.9186 18.0041C51.4118 18.1264 51.1077 18.4336 51.0272 18.9077C50.9645 19.2685 51.048 19.6503 51.2448 19.9276C51.4028 20.1453 51.6234 20.2884 51.8799 20.3272C52.2376 20.3868 52.6312 20.4047 53.0456 20.4226C54.274 20.4793 55.5769 20.533 56.1583 21.6215C56.5012 22.2716 56.4505 23.1125 56.0301 23.7209C55.5948 24.3501 54.7421 24.7318 53.4928 24.8034C53.3318 24.8123 53.1679 24.8183 52.989 24.8183H49.5126V13.9842H52.664C54.7391 13.9842 55.5769 14.5806 55.5769 15.848C55.5769 16.5429 55.3115 17.184 54.7868 17.5628C54.3157 17.9057 53.627 17.9147 52.9651 17.9206C52.6699 17.9236 52.2496 17.9296 51.9216 18.0011L51.9186 18.0041Z" fill="#007F41"/>
<path d="M8.52021 14.0411C7.54527 13.1434 6.35864 12.4039 4.92753 11.8999C4.20899 11.6464 3.02534 11.2766 2.01462 11.2766C1.14701 11.2766 0.404622 11.5539 0.216789 12.4188C-0.14397 14.0679 0.0259742 28.2509 0.154178 29.8941C0.243622 31.1018 0.753455 31.8056 2.16668 31.7758C12.0264 31.6178 14.6114 19.6624 8.52319 14.0381L8.52021 14.0411Z" fill="url(#paint0_linear_43_39)"/>
<path d="M19.8138 2.64909C18.9283 1.83497 17.8401 1.16399 16.5521 0.707719C15.8962 0.47213 14.8228 0.141113 13.9045 0.141113C13.1115 0.141113 12.4406 0.397577 12.2647 1.18188C11.9398 2.67593 12.0948 15.5558 12.2081 17.0498C12.2945 18.1413 12.7507 18.7795 14.0357 18.7616C22.9891 18.6125 25.3415 7.75749 19.8109 2.65207L19.8138 2.64909Z" fill="url(#paint1_linear_43_39)"/>
<path d="M23.7704 14.6194C22.6583 13.5935 21.2899 12.7496 19.6709 12.18C18.845 11.8848 17.4914 11.4673 16.3436 11.4673C15.3478 11.4673 14.498 11.7834 14.2834 12.7735C13.8689 14.6552 14.0687 30.8333 14.2148 32.709C14.3251 34.0868 14.8946 34.883 16.5076 34.8592C27.7597 34.6802 30.7203 21.0399 23.7704 14.6194Z" fill="url(#paint2_linear_43_39)"/>
<defs>
<linearGradient id="paint0_linear_43_39" x1="11.3814" y1="21.9871" x2="-0.799034" y2="21.8702" gradientUnits="userSpaceOnUse">
<stop offset="0.1" stop-color="#EE7800"/>
<stop offset="0.25" stop-color="#EB7201"/>
<stop offset="0.46" stop-color="#E56106"/>
<stop offset="0.69" stop-color="#DA460E"/>
<stop offset="0.93" stop-color="#CC2119"/>
<stop offset="1" stop-color="#C8161D"/>
</linearGradient>
<linearGradient id="paint1_linear_43_39" x1="12.7441" y1="9.53088" x2="23.6449" y2="9.6355" gradientUnits="userSpaceOnUse">
<stop stop-color="#20AEE5"/>
<stop offset="0.55" stop-color="#0F7EC4"/>
<stop offset="1" stop-color="#0054A7"/>
</linearGradient>
<linearGradient id="paint2_linear_43_39" x1="13.3707" y1="22.3597" x2="29.4826" y2="22.5143" gradientUnits="userSpaceOnUse">
<stop stop-color="#8FC31F"/>
<stop offset="0.14" stop-color="#89C020"/>
<stop offset="0.31" stop-color="#78BA26"/>
<stop offset="0.52" stop-color="#5DB02F"/>
<stop offset="0.73" stop-color="#37A23C"/>
<stop offset="0.96" stop-color="#08904D"/>
<stop offset="1" stop-color="#008D50"/>
</linearGradient>
</defs>
</svg>
