<svg xmlns="http://www.w3.org/2000/svg" width="124" height="26" viewBox="0 0 124 26" fill="none">
  <g clip-path="url(#clip0_43_160)">
    <path d="M109.712 20.7531C109.712 17.8903 112.188 15.5355 115.531 15.5355C118.874 15.5355 121.351 17.8903 121.351 20.7531C121.351 23.6159 118.874 26 115.531 26C112.188 26 109.712 23.6257 109.712 20.7531ZM115.512 23.3619C117.024 23.3619 118.248 22.2187 118.248 20.7433C118.248 19.268 117.024 18.1541 115.512 18.1541C113.999 18.1541 112.833 19.2777 112.833 20.7433C112.833 22.209 113.999 23.3619 115.512 23.3619Z" fill="#003070"/>
    <path d="M41.5742 18.6817H44.7826V22.7756H54.35V25.4431H41.5742V18.6817Z" fill="#003070"/>
    <path d="M121.476 5.1394V8.58848H124V11.3048H121.476V15.3303H118.344V5.1394H121.476Z" fill="#003070"/>
    <path d="M108.074 5.14917C108.054 8.012 107.92 10.3668 103.777 12.3307L105.28 14.6659C107.062 14.1383 109.076 12.5652 109.837 11.168C110.608 12.575 112.612 14.148 114.394 14.6659L115.897 12.3307C111.764 10.3765 111.619 8.012 111.6 5.14917H108.054H108.074Z" fill="#003070"/>
    <path d="M73.8605 9.95643H72.2129V5.17853H69.2646V25.7753H72.2129V12.9561H73.8605V25.7753H76.8954V5.17853H73.8605V9.95643Z" fill="#003070"/>
    <path d="M97.4945 9.95643H96.0686V5.17853H93.0818V25.7753H96.0686V12.9561H97.4945V25.7753H100.558V5.17853H97.4945V9.95643Z" fill="#003070"/>
    <path d="M51.238 16.0632H48.8678V13.4153H51.238V11.637H48.8582V8.98913H51.238V5.16876H54.3693V20.3134H51.238V16.0632Z" fill="#003070"/>
    <path d="M85.3932 4.26984V5.91132H81.8284V8.42241H83.5915C82.5413 9.13568 81.9247 10.5036 81.9247 11.9594C81.9247 14.4607 84.0444 16.6005 86.983 16.6005C89.9216 16.6005 92.0413 14.4607 92.0413 11.9594C92.0413 10.5134 91.4343 9.14545 90.3744 8.42241H92.1376V5.91132H88.5727V4.26984H85.4029H85.3932ZM89.1027 11.9008C89.1027 12.9951 88.1777 14.0601 86.9734 14.0601C85.769 14.0601 84.8441 13.0049 84.8441 11.9008C84.8441 10.7967 85.769 9.74146 86.9734 9.74146C88.1777 9.74146 89.1027 10.8065 89.1027 11.9008Z" fill="#003070"/>
    <path d="M40.813 4.28937V5.93086H36.8435V8.44194H39.0499C38.0189 9.13567 37.4312 10.484 37.4312 11.7542C37.4312 14.2555 39.5509 16.2879 42.4895 16.2879C45.4281 16.2879 47.5478 14.2555 47.5478 11.7542C47.5478 10.484 46.9504 9.13567 45.9291 8.44194H48.1355V5.93086H44.166V4.28937H40.8323H40.813ZM44.5995 11.7054C44.5995 12.7997 43.6746 13.7572 42.4702 13.7572C41.2659 13.7572 40.3409 12.8095 40.3409 11.7054C40.3409 10.6013 41.2659 9.65352 42.4702 9.65352C43.6746 9.65352 44.5995 10.6013 44.5995 11.7054Z" fill="#003070"/>
    <path d="M68.1952 16.2781H63.0888V8.4615H67.2799V5.76477H59.8997V18.9944H68.1952V16.2781Z" fill="#003070"/>
    <path d="M9.51919 8.37354C14.0957 8.37354 17.7859 4.63134 17.7859 0H25.407V25.7557H15.8782V14.8125H9.52883V25.7655H0V0H9.51919V8.37354Z" fill="#F18D00"/>
  </g>
  <defs>
    <clipPath id="clip0_43_160">
      <rect width="124" height="26" fill="white"/>
    </clipPath>
  </defs>
</svg>